# xmcd
#
# Track frame offsets:
# 150
# 23093
# 42429
# 64523
# 82493
# 105107
# 128573
# 148326
# 159921
# 183328
#
# Disc length: 2679 seconds
#
# Revision: 1
# Processed by: cddbd v1.5.2PL0 Copyright (c) Steve Scherf et al.
# Submitted via: CedeCatalogueitor 2.6.0.6 http://personales.ya.com/cdcatalogueitor
#
DISCID=7e0a750a
DTITLE=En Vogue - Hold On And Other Hits
DYEAR=1900
DGENRE=
TTITLE0=Hold On
TTITLE1=Lies
TTITLE2=Free Your Mind
TTITLE3=Love Don´t Love You
TTITLE4=Runaway Love
TTITLE5=Give It Up Turn It Loose
TTITLE6=Whatever
TTITLE7=Waitin´ On You
TTITLE8=Yesterday
TTITLE9=Giving Him Something He Can Feel 
EXTD=
EXTT0=
EXTT1=
EXTT2=
EXTT3=
EXTT4=
EXTT5=
EXTT6=
EXTT7=
EXTT8=
EXTT9=
PLAYORDER=
